<svg id="Layer_1" data-name="Layer 1" xmlns="http://www.w3.org/2000/svg" xmlns:xlink="http://www.w3.org/1999/xlink" viewBox="0 0 424.51 476"><defs><style>.cls-1{fill:none;}.cls-2{fill:#e4b424;}.cls-3{clip-path:url(#clip-path);}.cls-4{fill:#3281c5;}.cls-5{fill:#dfac2d;}.cls-6{fill:#094e8d;}</style><clipPath id="clip-path" transform="translate(-462.85 -126.08)"><rect class="cls-1" x="-15.27" y="-35.92" width="1366" height="768"/></clipPath></defs><title>logo</title><rect class="cls-2" x="212.26" y="265.85" width="10.51" height="5.25"/><rect class="cls-2" x="211.21" y="256.39" width="16.81" height="6.3"/><rect class="cls-2" x="211.21" y="247.98" width="18.91" height="5.25"/><g class="cls-3"><path class="cls-2" d="M693,370.91v-7.35s-6.31-1.06,0-10.51c0,0,42-36.78,11.56-69.35,0,0-6.31-10.51-29.42-12.61v99.82Z" transform="translate(-462.85 -126.08)"/><rect class="cls-2" x="201.75" y="265.85" width="10.51" height="5.25"/><rect class="cls-2" x="196.49" y="256.39" width="16.81" height="6.3"/><rect class="cls-2" x="194.39" y="247.98" width="18.91" height="5.25"/><path class="cls-2" d="M657.24,370.91v-7.35s6.31-1.06,0-10.51c0,0-42-36.78-11.56-69.35,0,0,6.31-10.51,29.43-12.61v99.82Z" transform="translate(-462.85 -126.08)"/><polygon class="cls-4" points="189.14 287.91 189.14 258.49 163.92 244.83 0 341.5 0 370.92 115.58 437.12 302.62 327.84 353.06 355.16 217.51 437.12 216.46 463.39 241.68 476 424.51 369.87 424.51 340.45 303.67 270.05 117.69 380.38 72.5 355.16 189.14 287.91"/><path class="cls-5" d="M698.22,153.4a23.12,23.12,0,1,1-23.11-23.12,23.12,23.12,0,0,1,23.11,23.12" transform="translate(-462.85 -126.08)"/><path class="cls-6" d="M652,180.72h46.23v94.57s-20-16.81-46.23,0V180.72" transform="translate(-462.85 -126.08)"/><polygon class="cls-6" points="424.51 109.28 235.37 0 235.37 54.64 375.13 136.6 375.13 300.52 424.51 329.94 424.51 109.28"/><polygon class="cls-6" points="0 109.28 189.14 0 189.14 54.64 49.39 136.6 49.39 300.52 0 329.94 0 109.28"/></g></svg>