<?xml version="1.0" encoding="iso-8859-1"?>
<!-- Generator: Adobe Illustrator 18.1.1, SVG Export Plug-In . SVG Version: 6.00 Build 0)  -->
<svg version="1.1" id="Capa_1" xmlns="http://www.w3.org/2000/svg" xmlns:xlink="http://www.w3.org/1999/xlink" x="0px" y="0px"
	 viewBox="0 0 331.393 331.393" style="enable-background:new 0 0 331.393 331.393;" xml:space="preserve">
<path d="M165.697,331.393c-0.466,0-0.933-0.041-1.394-0.123C78.407,316.074,18.416,263.929,18.416,204.463V8c0-4.418,3.582-8,8-8
	h278.561c4.418,0,8,3.582,8,8v196.463c0,59.466-59.991,111.611-145.887,126.807C166.629,331.352,166.163,331.393,165.697,331.393z
	 M34.416,16v188.463c0,25.095,12.724,49.06,36.797,69.304c23.774,19.992,57.284,34.702,94.483,41.497
	c37.2-6.795,70.709-21.505,94.483-41.497c24.073-20.244,36.797-44.209,36.797-69.304V16H34.416z M165.695,241.867
	c-0.8,0-1.604-0.12-2.385-0.364L75.983,214.22c-3.34-1.044-5.614-4.137-5.614-7.636V79.151c0-2.545,1.211-4.938,3.261-6.445
	s4.697-1.949,7.125-1.191l84.941,26.538l84.943-26.538c2.429-0.759,5.073-0.317,7.125,1.191c2.05,1.507,3.261,3.9,3.261,6.445
	v127.432c0,3.5-2.274,6.593-5.614,7.636l-87.328,27.283c-0.782,0.244-1.586,0.364-2.385,0.364l0,0
	C165.696,241.867,165.695,241.867,165.695,241.867z M173.697,112.316v110.67l71.328-22.284V90.032L173.697,112.316z M86.369,200.702
	l71.326,22.284v-110.67L86.369,90.032V200.702z M195.499,174.948c-3.407,0-6.564-2.193-7.634-5.616
	c-1.317-4.217,1.033-8.704,5.25-10.022l27.717-8.659c4.221-1.319,8.704,1.034,10.022,5.25c1.317,4.217-1.033,8.704-5.25,10.022
	l-27.717,8.659C197.093,174.83,196.289,174.948,195.499,174.948z M135.894,174.948c-0.791,0-1.594-0.118-2.388-0.366l-27.716-8.659
	c-4.217-1.318-6.568-5.805-5.25-10.022c1.318-4.217,5.806-6.566,10.022-5.25l27.716,8.659c4.217,1.318,6.568,5.805,5.25,10.022
	C142.458,172.754,139.3,174.948,135.894,174.948z M195.499,142.663c-3.407,0-6.564-2.193-7.633-5.616
	c-1.318-4.217,1.033-8.704,5.25-10.021l27.717-8.66c4.215-1.321,8.704,1.032,10.021,5.25c1.318,4.217-1.033,8.704-5.25,10.021
	l-27.717,8.66C197.093,142.545,196.29,142.663,195.499,142.663z M135.894,142.663c-0.791,0-1.594-0.118-2.388-0.366l-27.716-8.66
	c-4.217-1.317-6.568-5.805-5.25-10.021c1.318-4.217,5.808-6.568,10.021-5.25l27.716,8.66c4.217,1.317,6.568,5.805,5.25,10.021
	C142.458,140.469,139.3,142.663,135.894,142.663z"/>
<g>
</g>
<g>
</g>
<g>
</g>
<g>
</g>
<g>
</g>
<g>
</g>
<g>
</g>
<g>
</g>
<g>
</g>
<g>
</g>
<g>
</g>
<g>
</g>
<g>
</g>
<g>
</g>
<g>
</g>
</svg>
