<?xml version="1.0" encoding="iso-8859-1"?>
<!-- Generator: Adobe Illustrator 18.1.1, SVG Export Plug-In . SVG Version: 6.00 Build 0)  -->
<svg version="1.1" id="Capa_1" xmlns="http://www.w3.org/2000/svg" xmlns:xlink="http://www.w3.org/1999/xlink" x="0px" y="0px"
	 viewBox="0 0 377.64 377.64" style="enable-background:new 0 0 377.64 377.64;" xml:space="preserve">
<path d="M369.64,347.132H8c-4.418,0-8-3.582-8-8s3.582-8,8-8h361.64c4.418,0,8,3.582,8,8S374.058,347.132,369.64,347.132z
	 M354.968,310.669c-4.418,0-8-3.582-8-8V125.884h-53.882c-4.418,0-8-3.582-8-8s3.582-8,8-8h61.884c4.418,0,8,3.582,8,8
	c0,0.059,0,0.118-0.002,0.176v184.609C362.968,307.087,359.387,310.669,354.968,310.669z M285.566,310.669c-4.418,0-8-3.582-8-8
	v-90.367c0-4.418,3.582-8,8-8s8,3.582,8,8v90.367C293.566,307.087,289.984,310.669,285.566,310.669z M221.069,310.669
	c-4.418,0-8-3.582-8-8v-90.367c0-4.418,3.582-8,8-8s8,3.582,8,8v90.367C229.069,307.087,225.487,310.669,221.069,310.669z
	 M156.572,310.669c-4.418,0-8-3.582-8-8v-90.367c0-4.418,3.582-8,8-8s8,3.582,8,8v90.367
	C164.572,307.087,160.99,310.669,156.572,310.669z M92.075,310.669c-4.418,0-8-3.582-8-8v-90.367c0-4.418,3.582-8,8-8s8,3.582,8,8
	v90.367C100.075,307.087,96.493,310.669,92.075,310.669z M22.673,310.669c-4.418,0-8-3.582-8-8V118.118
	c-0.002-0.078-0.003-0.156-0.003-0.234c0-4.418,3.582-8,8-8h61.886c4.418,0,8,3.582,8,8s-3.582,8-8,8H30.673v176.785
	C30.673,307.087,27.091,310.669,22.673,310.669z M321.05,235.857c-4.418,0-8-3.582-8-8v-15.555c0-4.418,3.582-8,8-8s8,3.582,8,8
	v15.555C329.05,232.276,325.468,235.857,321.05,235.857z M56.604,235.857c-4.418,0-8-3.582-8-8v-15.555c0-4.418,3.582-8,8-8
	s8,3.582,8,8v15.555C64.604,232.276,61.023,235.857,56.604,235.857z M321.05,187.071c-4.418,0-8-3.582-8-8v-15.555
	c0-4.418,3.582-8,8-8s8,3.582,8,8v15.555C329.05,183.489,325.468,187.071,321.05,187.071z M56.604,187.071c-4.418,0-8-3.582-8-8
	v-15.555c0-4.418,3.582-8,8-8s8,3.582,8,8v15.555C64.604,183.489,61.023,187.071,56.604,187.071z M285.566,187.069H92.075
	c-4.418,0-8-3.582-8-8s3.582-8,8-8h193.492c4.418,0,8,3.582,8,8S289.985,187.069,285.566,187.069z M285.562,159.805
	c-1.193,0-2.404-0.268-3.546-0.833l-94.058-46.601l-92.28,46.575c-3.945,1.989-8.755,0.407-10.747-3.538
	c-1.991-3.944-0.407-8.756,3.538-10.747l92.351-46.61V38.507c0-4.418,3.582-8,8-8h57.83c4.418,0,8,3.582,8,8v30.224
	c0,4.418-3.582,8-8,8h-49.83v22.174l92.299,45.729c3.959,1.961,5.578,6.761,3.617,10.72
	C291.34,158.172,288.506,159.805,285.562,159.805z M196.82,60.731h41.83V46.507h-41.83V60.731z"/>
<g>
</g>
<g>
</g>
<g>
</g>
<g>
</g>
<g>
</g>
<g>
</g>
<g>
</g>
<g>
</g>
<g>
</g>
<g>
</g>
<g>
</g>
<g>
</g>
<g>
</g>
<g>
</g>
<g>
</g>
</svg>
