<svg height="511pt" viewBox="-55 0 511 511.99923" width="511pt" xmlns="http://www.w3.org/2000/svg"><path d="m223.570312 430.804688h-138.4375c-17.527343 0-31.738281-14.210938-31.738281-31.742188v-359.902344c0-17.53125 14.210938-31.742187 31.738281-31.742187h308.613282zm0 0" fill="#494a59"/><path d="m193.558594 122.59375v308.210938h30.011718l170.175782-423.386719h-60.785156l-108.066407 61.351562c-19.328125 10.972657-31.335937 31.59375-31.335937 53.824219zm0 0" fill="#3f404d"/><path d="m86.546875 40.570312h264.574219v357.082032h-264.574219zm0 0" fill="#ecebed"/><path d="m236.894531 397.652344 114.226563-284.1875v-72.894532h-76.558594l-49.667969 28.199219c-19.328125 10.972657-31.335937 31.597657-31.335937 53.824219v275.058594zm0 0" fill="#dfdfe0"/><path d="m239.710938 94.867188 154.035156-87.449219v423.386719l-122.550782 69.574218c-21.253906 12.066406-47.625-3.285156-47.625-27.726562v-350.058594c0-11.476562 6.164063-22.066406 16.140626-27.726562zm0 0" fill="#64c6fb"/><path d="m303.921875 279.386719c0 12.917969-10.472656 23.386719-23.390625 23.386719-12.914062 0-23.386719-10.46875-23.386719-23.386719s10.472657-23.386719 23.386719-23.386719c12.917969 0 23.390625 10.46875 23.390625 23.386719zm0 0" fill="#ecebed"/><path d="m22.914062 205.21875h96.109376v-16.449219c0-8.023437 9.453124-12.316406 15.496093-7.035156l60.605469 52.988281c4.257812 3.722656 4.257812 10.34375 0 14.070313l-60.605469 52.984375c-6.042969 5.28125-15.496093.992187-15.496093-7.035156v-16.445313h-96.109376c-8.234374 0-14.910156-6.675781-14.910156-14.910156v-43.261719c0-8.230469 6.675782-14.90625 14.910156-14.90625zm0 0" fill="#b6d97a"/><path d="m249.644531 279.472656c0 17.035156 13.855469 30.890625 30.886719 30.890625 17.035156 0 30.890625-13.859375 30.890625-30.890625s-13.855469-30.890625-30.890625-30.890625c-17.03125 0-30.886719 13.859375-30.886719 30.890625zm46.773438 0c0 8.757813-7.125 15.886719-15.886719 15.886719-8.757812 0-15.882812-7.128906-15.882812-15.886719 0-8.757812 7.125-15.886718 15.882812-15.886718 8.761719 0 15.886719 7.128906 15.886719 15.886718zm0 0"/><path d="m85.132812 15.003906h58.308594c4.144532 0 7.503906-3.359375 7.503906-7.5 0-4.144531-3.359374-7.503906-7.503906-7.503906h-58.308594c-21.636718 0-39.242187 17.605469-39.242187 39.242188v158.558593h-22.980469c-12.355468 0-22.410156 10.054688-22.410156 22.410157v43.261718c0 12.355469 10.054688 22.410156 22.410156 22.410156h22.980469v113.265626c0 21.636718 17.605469 39.242187 39.242187 39.242187h130.933594v34.34375c0 29.601563 33.015625 48.90625 58.832032 34.253906l122.550781-69.574219c2.347656-1.335937 3.796875-3.824218 3.796875-6.523437v-57.5c0-4.144531-3.355469-7.503906-7.5-7.503906-4.144532 0-7.503906 3.359375-7.503906 7.503906v53.132813s-118.640626 67.355468-118.75 67.414062c-15.992188 9.082031-36.421876-2.90625-36.421876-21.203125 0 0 0-349.941406 0-350.058594 0-8.628906 4.84375-16.941406 12.34375-21.203125l142.828126-81.082031v322.988281c0 4.144532 3.359374 7.503906 7.503906 7.503906 4.144531 0 7.5-3.359374 7.5-7.503906 0 0 0-335.820312 0-335.875 0-4.0625-3.453125-7.4843748-7.5-7.503906h-220.292969c-4.144531 0-7.503906 3.359375-7.503906 7.503906 0 4.140625 3.359375 7.5 7.503906 7.5h191.878906l-31.964843 18.148438h-246.820313c-4.144531 0-7.503906 3.359375-7.503906 7.503906v157.144531h-18.148438v-158.558593c0-13.363282 10.875-24.238282 24.238281-24.238282zm0 408.382813c-13.363281 0-24.238281-10.875-24.238281-24.238281v-113.265626h18.148438v111.851563c0 4.144531 3.359375 7.503906 7.503906 7.503906h129.519531v18.148438zm8.914063-375.230469h212.890625l-70.929688 40.269531c-12.300781 6.984375-19.941406 20.105469-19.941406 34.25v267.558594h-122.019531v-104.351563h17.472656v8.945313c0 .011719.003907.023437.003907.03125.035156 14.097656 17.300781 21.949219 27.933593 12.652344 0 0 60.582031-52.964844 60.605469-52.988281 7.027344-6.144532 7.621094-17.238282 1.296875-24.097657-.40625-.445312-62.808594-54.992187-63.285156-55.328125-3.277344-2.335937-7.339844-3.433594-11.351563-3.019531-.019531 0-.039062.003906-.058594.003906-8.398437.875-15.125 8.289063-15.140624 16.742188 0 .011719-.003907.019531-.003907.03125v8.945312h-17.472656zm24.976563 164.648438c4.144531 0 7.503906-3.359376 7.503906-7.5 0 0 0-16.445313 0-16.449219 0-1.5625 1.878906-2.410157 3.050781-1.386719 0 0 60.574219 52.960938 60.605469 52.988281.828125.722657.824218 2.050781 0 2.769531 0 0-60.625 53.003907-60.632813 53.011719-1.167969.996094-3.023437.105469-3.023437-1.410156 0 0 0-16.4375 0-16.445313 0-4.082031-3.425782-7.503906-7.503906-7.503906h-96.109376c-4.085937 0-7.410156-3.324218-7.410156-7.40625v-43.261718c0-4.082032 3.324219-7.40625 7.410156-7.40625zm0 0"/></svg>