<svg height="511pt" viewBox="-16 0 511 511.99925" width="511pt" xmlns="http://www.w3.org/2000/svg"><path d="m330.496094 15v392c0 8.398438-6.597656 15-15 15h-149.996094l-150-422h299.996094c8.402344 0 15 6.597656 15 15zm0 0" fill="#575f64"/><path d="m330.496094 15v392c0 8.398438-6.597656 15-15 15h-134.996094v-422h134.996094c8.402344 0 15 6.597656 15 15zm0 0" fill="#32393f"/><path d="m157.78125 509.863281-150-90c-4.511719-2.710937-7.28125-7.589843-7.28125-12.863281v-392c0-5.402344 2.898438-10.382812 7.601562-13.050781 4.703126-2.664063 10.472657-2.59375 15.117188.191406l150 90c4.511719 2.707031 7.28125 7.585937 7.28125 12.859375v392c0 5.40625-2.902344 10.386719-7.605469 13.050781-4.695312 2.664063-10.46875 2.589844-15.113281-.1875zm0 0" fill="#ff9100"/><path d="m120.46875 286c0 8.285156-6.714844 15-15 15-8.28125 0-15-6.714844-15-15s6.71875-15 15-15c8.285156 0 15 6.714844 15 15zm0 0" fill="#575f64"/><path d="m473.898438 198.398438-60-45c-4.800782-3-10.5-3.300782-15.601563-.597657-4.800781 2.699219-7.800781 7.800781-7.800781 13.199219v15h-134.996094c-8.402344 0-15 6.597656-15 15v30c0 8.398438 6.597656 15 15 15h134.996094v15c0 5.398438 3 10.5 7.800781 13.199219s10.800781 2.398437 15.601563-.601563l60-45c4.199218-2.996094 6.597656-7.5 6.597656-12.597656 0-5.101562-2.398438-9.601562-6.597656-12.601562zm0 0" fill="#9cdd05"/><path d="m480.496094 211c0 5.097656-2.398438 9.601562-6.597656 12.597656l-60 45c-4.800782 3-10.800782 3.300782-15.601563.601563s-7.800781-7.800781-7.800781-13.199219v-15h-134.996094c-8.402344 0-15-6.601562-15-15v-15zm0 0" fill="#6b0"/></svg>